<svg width="400" height="100" viewBox="0 0 400 100" xmlns="http://www.w3.org/2000/svg">
    <!-- DNA Helix Icon -->
    <g transform="translate(10, 30)">
        <path d="M10 8C10 8 15 12 20 12C25 12 30 8 30 8" stroke="#2A5A5B" stroke-width="2.5" stroke-linecap="round" fill="none"/>
        <path d="M10 16C10 16 15 20 20 20C25 20 30 16 30 16" stroke="#B8935E" stroke-width="2.5" stroke-linecap="round" fill="none"/>
        <path d="M10 24C10 24 15 28 20 28C25 28 30 24 30 24" stroke="#2A5A5B" stroke-width="2.5" stroke-linecap="round" fill="none"/>
        <path d="M10 32C10 32 15 36 20 36C25 36 30 32 30 32" stroke="#B8935E" stroke-width="2.5" stroke-linecap="round" fill="none"/>
        <line x1="10" y1="8" x2="10" y2="32" stroke="#1A2F3D" stroke-width="2.5" stroke-linecap="round"/>
        <line x1="30" y1="8" x2="30" y2="32" stroke="#1A2F3D" stroke-width="2.5" stroke-linecap="round"/>
    </g>
    <!-- Text -->
    <text x="70" y="55" font-family="Georgia, serif" font-size="28" fill="#1A2F3D" font-weight="400" letter-spacing="-0.5">The Synthesis</text>
</svg>
